<svg width="64" height="79" viewBox="0 0 64 79" fill="none" xmlns="http://www.w3.org/2000/svg">
<path d="M0 0H10.7923L17.7926 51.4507H17.9871L24.9875 0H34.8074L24.5013 66.3268H10.3061L0 0Z" fill="#FF0000"/>
<path d="M50.0479 79C45.5106 79 42.0509 77.7564 39.6688 75.2691C37.2867 72.7266 36.0957 69.1062 36.0957 64.4081V59.8481H44.9434V65.0714C44.9434 68.8299 46.5598 70.7091 49.7926 70.7091C53.0254 70.7091 54.6418 68.8299 54.6418 65.0714V52.0547C54.6418 48.2409 53.0254 46.334 49.7926 46.334C46.5598 46.334 44.9434 48.2409 44.9434 52.0547V52.5522H36.0957L37.7972 20.1349H62.4687V28.4258H46.1344L45.3688 42.2715H45.5389C47.2971 39.4526 49.9911 38.0432 53.621 38.0432C57.0239 38.0432 59.6045 39.1763 61.3627 41.4424C63.1209 43.7086 64 46.9973 64 51.3085V64.4081C64 69.1062 62.809 72.7266 60.4269 75.2691C58.0448 77.7564 54.5851 79 50.0479 79Z" fill="#FF0000"/>
</svg>
